<svg width="20" height="20" viewBox="0 0 20 20" fill="none" xmlns="http://www.w3.org/2000/svg">
<path d="M12.5 18.9583H7.49996C2.97496 18.9583 1.04163 17.025 1.04163 12.5V7.49996C1.04163 2.97496 2.97496 1.04163 7.49996 1.04163H11.6666C12.0083 1.04163 12.2916 1.32496 12.2916 1.66663C12.2916 2.00829 12.0083 2.29163 11.6666 2.29163H7.49996C3.65829 2.29163 2.29163 3.65829 2.29163 7.49996V12.5C2.29163 16.3416 3.65829 17.7083 7.49996 17.7083H12.5C16.3416 17.7083 17.7083 16.3416 17.7083 12.5V8.33329C17.7083 7.99163 17.9916 7.70829 18.3333 7.70829C18.675 7.70829 18.9583 7.99163 18.9583 8.33329V12.5C18.9583 17.025 17.025 18.9583 12.5 18.9583Z" fill="#353535"/>
<path d="M18.3333 8.95828H15C12.15 8.95828 11.0416 7.84995 11.0416 4.99995V1.66662C11.0416 1.41662 11.1916 1.18328 11.425 1.09162C11.6583 0.991617 11.925 1.04995 12.1083 1.22495L18.775 7.89162C18.95 8.06662 19.0083 8.34162 18.9083 8.57495C18.8083 8.80828 18.5833 8.95828 18.3333 8.95828ZM12.2916 3.17495V4.99995C12.2916 7.14995 12.85 7.70828 15 7.70828H16.825L12.2916 3.17495Z" fill="#353535"/>
<path d="M10.8334 11.4584H5.83337C5.49171 11.4584 5.20837 11.175 5.20837 10.8334C5.20837 10.4917 5.49171 10.2084 5.83337 10.2084H10.8334C11.175 10.2084 11.4584 10.4917 11.4584 10.8334C11.4584 11.175 11.175 11.4584 10.8334 11.4584Z" fill="#353535"/>
<path d="M9.16671 14.7916H5.83337C5.49171 14.7916 5.20837 14.5083 5.20837 14.1666C5.20837 13.825 5.49171 13.5416 5.83337 13.5416H9.16671C9.50837 13.5416 9.79171 13.825 9.79171 14.1666C9.79171 14.5083 9.50837 14.7916 9.16671 14.7916Z" fill="#353535"/>
</svg>
