<svg width="40" height="40" viewBox="0 0 40 40" fill="none" xmlns="http://www.w3.org/2000/svg">
<path d="M32.1917 7.80816C25.4579 1.07436 14.5421 1.07436 7.80828 7.80816C1.07449 14.542 1.07449 25.4578 7.80828 32.1916C14.5421 38.9254 25.4579 38.9254 32.1917 32.1916C38.9255 25.4578 38.9241 14.542 32.1917 7.80816ZM29.3834 15.7364L18.9062 26.2151C18.6476 26.4736 18.2968 26.6189 17.931 26.6189C17.5653 26.6189 17.2145 26.4736 16.9559 26.2151L10.6166 19.8744C10.4885 19.7463 10.3869 19.5943 10.3176 19.427C10.2483 19.2596 10.2126 19.0803 10.2126 18.8992C10.2126 18.5334 10.3579 18.1827 10.6166 17.924C10.8752 17.6654 11.226 17.5201 11.5917 17.5201C11.9575 17.5201 12.3083 17.6654 12.5669 17.924L17.931 23.2882L27.4331 13.7847C27.5613 13.6566 27.7134 13.5551 27.8808 13.4858C28.0482 13.4165 28.2276 13.3809 28.4088 13.381C28.5899 13.381 28.7693 13.4168 28.9367 13.4862C29.104 13.5556 29.2561 13.6572 29.3841 13.7854C29.5122 13.9136 29.6138 14.0657 29.683 14.2331C29.7523 14.4005 29.7879 14.5799 29.7879 14.7611C29.7878 14.9422 29.7521 15.1216 29.6827 15.289C29.6133 15.4563 29.5116 15.6084 29.3834 15.7364Z" fill="#FBBE01"/>
</svg>
